<svg xmlns="http://www.w3.org/2000/svg" id="svg3282" version="1.1" xml:space="preserve" width="46" height="46" viewBox="0 0 631.25 631.25"><title>javascriptbw</title><g class="nc-icon-wrapper"><defs id="defs3286"><clipPath clipPathUnits="userSpaceOnUse" id="clipPath3298"><path d="M0 504.502h504.67V.06H0v504.442z" id="path3300"/></clipPath><clipPath clipPathUnits="userSpaceOnUse" id="clipPath3304"><path d="M0 0h505v505H0V0z" id="path3306"/></clipPath><clipPath clipPathUnits="userSpaceOnUse" id="clipPath3314"><path d="M0 0h505v505H0V0z" id="path3316"/></clipPath></defs><g id="g3290" transform="matrix(1.25 0 0 -1.25 0 631.25)"><g id="g3296" clip-path="url(#clipPath3298)"><g id="g3302" clip-path="url(#clipPath3304)"><path d="M0 504.502h504.67V.06H0v504.442z" id="path3308" fill="#d7d7d7" fill-opacity="1" fill-rule="nonzero" stroke="none"/></g></g><g id="g3310" display="inline"><g id="g3312" clip-path="url(#clipPath3314)" display="inline"><path d="M132.525 83.323l38.57 23.342c7.441-13.193 14.21-24.355 30.446-24.355 15.563 0 25.375 6.088 25.375 29.768v161.04h47.363V111.404c0-49.056-28.755-71.385-70.708-71.385-37.889 0-59.882 19.623-71.046 43.304" id="path3318" fill="#ffffff" fill-opacity="1" fill-rule="nonzero" stroke="none"/><path d="M299.995 88.398l38.565 22.329c10.152-16.579 23.346-28.758 46.689-28.758 19.625 0 32.139 9.812 32.139 23.345 0 16.239-12.855 21.991-34.508 31.461l-11.838 5.078c-34.172 14.545-56.84 32.814-56.84 71.382 0 35.523 27.065 62.59 69.356 62.59 30.11 0 51.762-10.489 67.323-37.893l-36.877-23.681c-8.12 14.546-16.914 20.297-30.446 20.297-13.871 0-22.668-8.796-22.668-20.297 0-14.21 8.797-19.962 29.094-28.759l11.84-5.074c40.26-17.255 62.928-34.846 62.928-74.427 0-42.63-33.493-65.972-78.488-65.972-43.981 0-72.4 20.974-86.269 48.379" id="path3320" fill="#ffffff" fill-opacity="1" fill-rule="nonzero" stroke="none"/></g></g></g></g></svg>