<svg xmlns="http://www.w3.org/2000/svg" width="85" height="17" viewBox="0 0 85.286 17.982"><title>Pluralsight</title><g class="nc-icon-wrapper"><defs><linearGradient id="linear-gradient" x1=".5" x2=".5" y2="1" gradientUnits="objectBoundingBox"><stop offset="0" stop-color="#f05a28"/><stop offset=".016" stop-color="#f05a28"/><stop offset=".023" stop-color="#f05a28"/><stop offset=".031" stop-color="#f05929"/><stop offset=".039" stop-color="#f0582a"/><stop offset=".047" stop-color="#f0582b"/><stop offset=".055" stop-color="#f0572c"/><stop offset=".063" stop-color="#f0562c"/><stop offset=".07" stop-color="#f0552d"/><stop offset=".078" stop-color="#f0552e"/><stop offset=".086" stop-color="#f0542f"/><stop offset=".094" stop-color="#f0532f"/><stop offset=".102" stop-color="#f05330"/><stop offset=".109" stop-color="#f05231"/><stop offset=".117" stop-color="#f05132"/><stop offset=".125" stop-color="#ef5033"/><stop offset=".133" stop-color="#ef5033"/><stop offset=".141" stop-color="#ef4f34"/><stop offset=".148" stop-color="#ef4e35"/><stop offset=".156" stop-color="#ef4e36"/><stop offset=".164" stop-color="#ef4d36"/><stop offset=".172" stop-color="#ef4c37"/><stop offset=".18" stop-color="#ef4b38"/><stop offset=".188" stop-color="#ef4b39"/><stop offset=".195" stop-color="#ef4a3a"/><stop offset=".203" stop-color="#ef493a"/><stop offset=".211" stop-color="#ef493b"/><stop offset=".219" stop-color="#ef483c"/><stop offset=".227" stop-color="#ef473d"/><stop offset=".234" stop-color="#ef463d"/><stop offset=".242" stop-color="#ef463e"/><stop offset=".25" stop-color="#ef453f"/><stop offset=".258" stop-color="#ef4440"/><stop offset=".266" stop-color="#ef4441"/><stop offset=".273" stop-color="#ef4341"/><stop offset=".281" stop-color="#ef4242"/><stop offset=".289" stop-color="#ef4143"/><stop offset=".297" stop-color="#ef4144"/><stop offset=".305" stop-color="#ef4045"/><stop offset=".313" stop-color="#ef3f45"/><stop offset=".32" stop-color="#ee3f46"/><stop offset=".328" stop-color="#ee3e47"/><stop offset=".336" stop-color="#ee3d48"/><stop offset=".344" stop-color="#ee3c48"/><stop offset=".352" stop-color="#ee3c49"/><stop offset=".359" stop-color="#ee3b4a"/><stop offset=".367" stop-color="#ee3a4b"/><stop offset=".375" stop-color="#ee3a4c"/><stop offset=".383" stop-color="#ee394c"/><stop offset=".391" stop-color="#ee384d"/><stop offset=".398" stop-color="#ee384e"/><stop offset=".406" stop-color="#ee374f"/><stop offset=".414" stop-color="#ee364f"/><stop offset=".422" stop-color="#ee3550"/><stop offset=".43" stop-color="#ee3551"/><stop offset=".438" stop-color="#ee3452"/><stop offset=".445" stop-color="#ee3353"/><stop offset=".453" stop-color="#ee3353"/><stop offset=".461" stop-color="#ee3254"/><stop offset=".469" stop-color="#ee3155"/><stop offset=".477" stop-color="#ee3056"/><stop offset=".484" stop-color="#ee3057"/><stop offset=".492" stop-color="#ee2f57"/><stop offset=".5" stop-color="#ee2e58"/><stop offset=".508" stop-color="#ee2e59"/><stop offset=".516" stop-color="#ed2d5a"/><stop offset=".523" stop-color="#ed2c5a"/><stop offset=".531" stop-color="#ed2b5b"/><stop offset=".539" stop-color="#ed2b5c"/><stop offset=".547" stop-color="#ed2a5d"/><stop offset=".555" stop-color="#ed295e"/><stop offset=".563" stop-color="#ed295e"/><stop offset=".57" stop-color="#ed285f"/><stop offset=".578" stop-color="#ed2760"/><stop offset=".586" stop-color="#ed2661"/><stop offset=".594" stop-color="#ed2661"/><stop offset=".602" stop-color="#ed2562"/><stop offset=".609" stop-color="#ed2463"/><stop offset=".617" stop-color="#ed2464"/><stop offset=".625" stop-color="#ed2365"/><stop offset=".633" stop-color="#ed2265"/><stop offset=".641" stop-color="#ed2166"/><stop offset=".648" stop-color="#ed2167"/><stop offset=".656" stop-color="#ed2068"/><stop offset=".664" stop-color="#ed1f69"/><stop offset=".672" stop-color="#ed1f69"/><stop offset=".68" stop-color="#ed1e6a"/><stop offset=".688" stop-color="#ed1d6b"/><stop offset=".695" stop-color="#ed1c6c"/><stop offset=".703" stop-color="#ed1c6c"/><stop offset=".711" stop-color="#ed1b6d"/><stop offset=".719" stop-color="#ec1a6e"/><stop offset=".727" stop-color="#ec1a6f"/><stop offset=".734" stop-color="#ec1970"/><stop offset=".742" stop-color="#ec1870"/><stop offset=".75" stop-color="#ec1871"/><stop offset=".758" stop-color="#ec1772"/><stop offset=".766" stop-color="#ec1673"/><stop offset=".773" stop-color="#ec1573"/><stop offset=".781" stop-color="#ec1574"/><stop offset=".789" stop-color="#ec1475"/><stop offset=".797" stop-color="#ec1376"/><stop offset=".805" stop-color="#ec1377"/><stop offset=".813" stop-color="#ec1277"/><stop offset=".82" stop-color="#ec1178"/><stop offset=".828" stop-color="#ec1079"/><stop offset=".836" stop-color="#ec107a"/><stop offset=".844" stop-color="#ec0f7b"/><stop offset=".852" stop-color="#ec0e7b"/><stop offset=".859" stop-color="#ec0e7c"/><stop offset=".867" stop-color="#ec0d7d"/><stop offset=".875" stop-color="#ec0c7e"/><stop offset=".883" stop-color="#ec0b7e"/><stop offset=".891" stop-color="#ec0b7f"/><stop offset=".898" stop-color="#ec0a80"/><stop offset=".906" stop-color="#ec0981"/><stop offset=".914" stop-color="#eb0982"/><stop offset=".922" stop-color="#eb0882"/><stop offset=".93" stop-color="#eb0783"/><stop offset=".938" stop-color="#eb0684"/><stop offset=".945" stop-color="#eb0685"/><stop offset=".953" stop-color="#eb0585"/><stop offset=".961" stop-color="#eb0486"/><stop offset=".969" stop-color="#eb0487"/><stop offset=".977" stop-color="#eb0388"/><stop offset=".984" stop-color="#eb0289"/><stop offset=".992" stop-color="#eb0189"/><stop offset="1" stop-color="#eb018a"/></linearGradient></defs><g id="Pluralsight_Logo" transform="translate(-.742 -.723)"><path id="Path_30" data-name="Path 30" d="M18.724.723H.742V18.7h17.982z" fill="url(#linear-gradient)"/><path id="Path_31" data-name="Path 31" d="M16.133 10.676v9.344l8.091-4.672-8.091-4.672zm.775 1.341l5.767 3.331-5.767 3.33z" transform="translate(-8.711 -5.633)" fill="#fff"/><path id="Path_32" data-name="Path 32" d="M11.844 13.027l6.325 3.652-6.325 3.651v-7.3zm.775 1.341v4.622l4-2.311-4-2.311z" transform="translate(-6.284 -6.964)" fill="#fff"/><path id="Path_33" data-name="Path 33" d="M53.4 15.72h1.921a1.639 1.639 0 0 1 1.851 1.629v.013c0 1.092-.877 1.663-1.948 1.663h-.968v1.567H53.4zm1.851 2.533c.648 0 1.051-.361 1.051-.87v-.013c0-.57-.41-.87-1.051-.87h-1v1.753h1zM59.3 15.72h.856v4.093h2.563v.78H59.3zm5.342 2.806V15.72h.858v2.77c0 .905.467 1.392 1.233 1.392s1.226-.46 1.226-1.356V15.72h.856v2.763a1.946 1.946 0 0 1-2.1 2.185 1.92 1.92 0 0 1-2.075-2.143zm6.595-2.806h2.172a1.969 1.969 0 0 1 1.407.487 1.474 1.474 0 0 1 .4 1.051v.015a1.461 1.461 0 0 1-1.163 1.475l1.315 1.844h-1.005l-1.2-1.7h-1.07v1.7h-.856V15.72zm2.109 2.416c.614 0 1-.321 1-.816v-.013c0-.523-.376-.807-1.009-.807h-1.244v1.636zm5.9-2.452h.793l2.143 4.908h-.9l-.495-1.177h-2.3l-.5 1.176H77.1l2.144-4.908zm1.224 2.972l-.841-1.948-.836 1.948zm3.8-2.936h.854v4.093h2.564v.78h-3.421zm5.23 4.162l.516-.612a2.241 2.241 0 0 0 1.538.632c.529 0 .863-.243.863-.612v-.014c0-.349-.2-.536-1.1-.744-1.037-.251-1.622-.558-1.622-1.455v-.015a1.489 1.489 0 0 1 1.663-1.412 2.7 2.7 0 0 1 1.768.612l-.46.648a2.207 2.207 0 0 0-1.322-.5c-.5 0-.793.256-.793.576V17c0 .377.222.544 1.156.766 1.029.251 1.565.619 1.565 1.427v.013c0 .912-.717 1.455-1.739 1.455a3 3 0 0 1-2.033-.779zm6.081-4.162h.856v4.872h-.856zm3.192 2.45v-.014a2.481 2.481 0 0 1 2.512-2.519 2.63 2.63 0 0 1 1.873.661l-.544.646a1.913 1.913 0 0 0-1.364-.522 1.65 1.65 0 0 0-1.58 1.721v.013a1.628 1.628 0 0 0 1.656 1.741 1.989 1.989 0 0 0 1.177-.369v-.912h-1.246v-.746h2.074v2.048a3.108 3.108 0 0 1-2.032.758 2.416 2.416 0 0 1-2.529-2.506zm6.92-2.45h.858v2.026h2.324V15.72h.856v4.872h-.856V18.54h-2.324v2.053h-.858z" transform="translate(-29.806 -8.441)"/><g id="Group_4" data-name="Group 4" transform="translate(82.074 7.278)"><path id="Path_34" data-name="Path 34" d="M.148.828v.793h1.546V5.7h.863V1.621H4.1V.828z" transform="translate(-.148 -.828)"/></g></g></g></svg>